<svg width="185" height="91" viewBox="0 0 185 91" fill="none" xmlns="http://www.w3.org/2000/svg">
<rect width="185" height="91" rx="18.2417" fill="black"/>
<rect x="0.380035" y="0.380035" width="184.24" height="90.2399" rx="17.8616" stroke="white" stroke-opacity="0.5" stroke-width="0.76007"/>
<path d="M37.6299 40H34.2897L27.7876 29.3338V40H24.4474V23.7891H27.7876L34.3008 34.4776V23.7891H37.6299V40ZM39.8344 33.8653C39.8344 32.6702 40.0645 31.6051 40.5247 30.6698C40.9849 29.7346 41.6455 29.0109 42.5065 28.4987C43.3749 27.9866 44.3807 27.7305 45.5238 27.7305C47.1493 27.7305 48.4742 28.2278 49.4985 29.2224C50.5303 30.2171 51.1055 31.568 51.2243 33.2752L51.2465 34.0991C51.2465 35.9473 50.7307 37.4318 49.6989 38.5526C48.6672 39.666 47.2829 40.2227 45.546 40.2227C43.8091 40.2227 42.4211 39.666 41.382 38.5526C40.3502 37.4392 39.8344 35.925 39.8344 34.01V33.8653ZM43.052 34.0991C43.052 35.2421 43.2673 36.118 43.6978 36.7267C44.1283 37.3279 44.7444 37.6285 45.546 37.6285C46.3254 37.6285 46.934 37.3316 47.372 36.7378C47.8099 36.1366 48.0289 35.179 48.0289 33.8653C48.0289 32.7444 47.8099 31.876 47.372 31.2599C46.934 30.6439 46.318 30.3358 45.5238 30.3358C44.737 30.3358 44.1283 30.6439 43.6978 31.2599C43.2673 31.8686 43.052 32.815 43.052 34.0991ZM61.9239 27.9532L62.0241 29.3004C62.8777 28.2538 64.0319 27.7305 65.4867 27.7305C67.038 27.7305 68.1032 28.3429 68.6821 29.5676C69.5283 28.3429 70.7345 27.7305 72.3006 27.7305C73.607 27.7305 74.5794 28.1128 75.2177 28.8773C75.856 29.6344 76.1752 30.7775 76.1752 32.3065V40H72.9464V32.3177C72.9464 31.6348 72.8128 31.1375 72.5456 30.8257C72.2784 30.5065 71.807 30.347 71.1316 30.347C70.1667 30.347 69.4986 30.8072 69.1275 31.7276L69.1386 40H65.9209V32.3288C65.9209 31.6311 65.7836 31.1263 65.509 30.8146C65.2344 30.5028 64.7667 30.347 64.1061 30.347C63.1932 30.347 62.5325 30.7255 62.1243 31.4826V40H58.9066V27.9532H61.9239ZM78.157 33.8653C78.157 32.6702 78.3871 31.6051 78.8473 30.6698C79.3075 29.7346 79.9681 29.0109 80.8292 28.4987C81.6976 27.9866 82.7034 27.7305 83.8464 27.7305C85.472 27.7305 86.7969 28.2278 87.8212 29.2224C88.8529 30.2171 89.4282 31.568 89.547 33.2752L89.5692 34.0991C89.5692 35.9473 89.0534 37.4318 88.0216 38.5526C86.9899 39.666 85.6056 40.2227 83.8687 40.2227C82.1318 40.2227 80.7438 39.666 79.7046 38.5526C78.6729 37.4392 78.157 35.925 78.157 34.01V33.8653ZM81.3747 34.0991C81.3747 35.2421 81.59 36.118 82.0205 36.7267C82.451 37.3279 83.0671 37.6285 83.8687 37.6285C84.6481 37.6285 85.2567 37.3316 85.6946 36.7378C86.1326 36.1366 86.3515 35.179 86.3515 33.8653C86.3515 32.7444 86.1326 31.876 85.6946 31.2599C85.2567 30.6439 84.6406 30.3358 83.8464 30.3358C83.0596 30.3358 82.451 30.6439 82.0205 31.2599C81.59 31.8686 81.3747 32.815 81.3747 34.0991ZM98.3204 30.9705C97.8825 30.9111 97.4965 30.8814 97.1625 30.8814C95.9452 30.8814 95.1473 31.2933 94.7687 32.1172V40H91.551V27.9532H94.5906L94.6797 29.3895C95.3254 28.2835 96.2198 27.7305 97.3629 27.7305C97.7192 27.7305 98.0532 27.7788 98.365 27.8752L98.3204 30.9705ZM105.201 40.2227C103.435 40.2227 101.995 39.6808 100.881 38.5971C99.7752 37.5134 99.2223 36.0698 99.2223 34.2661V33.9543C99.2223 32.7444 99.4561 31.6645 99.9237 30.7144C100.391 29.7569 101.052 29.022 101.906 28.5099C102.767 27.9903 103.746 27.7305 104.845 27.7305C106.493 27.7305 107.788 28.2501 108.731 29.2892C109.681 30.3284 110.156 31.8018 110.156 33.7094V35.0232H102.484C102.588 35.81 102.9 36.4409 103.42 36.9159C103.947 37.391 104.611 37.6285 105.413 37.6285C106.652 37.6285 107.621 37.1794 108.319 36.2813L109.9 38.0516C109.417 38.7345 108.764 39.2689 107.94 39.6549C107.116 40.0334 106.203 40.2227 105.201 40.2227ZM104.834 30.3358C104.195 30.3358 103.676 30.5511 103.275 30.9816C102.882 31.4121 102.629 32.0282 102.518 32.8298H106.994V32.5737C106.979 31.8612 106.786 31.3119 106.415 30.9259C106.044 30.5325 105.517 30.3358 104.834 30.3358ZM124.195 36.671C124.195 36.2776 123.999 35.9696 123.605 35.7469C123.219 35.5168 122.596 35.3127 121.735 35.1345C118.87 34.5333 117.437 33.316 117.437 31.4826C117.437 30.4138 117.879 29.5231 118.762 28.8105C119.653 28.0905 120.814 27.7305 122.247 27.7305C123.776 27.7305 124.997 28.0905 125.91 28.8105C126.83 29.5305 127.291 30.4657 127.291 31.6162H124.073C124.073 31.156 123.925 30.7775 123.628 30.4806C123.331 30.1762 122.867 30.0241 122.236 30.0241C121.694 30.0241 121.275 30.1466 120.978 30.3915C120.681 30.6364 120.532 30.9482 120.532 31.3267C120.532 31.683 120.699 31.9725 121.033 32.1952C121.375 32.4104 121.946 32.5997 122.748 32.763C123.55 32.9189 124.225 33.097 124.774 33.2974C126.474 33.9209 127.324 35.0009 127.324 36.5374C127.324 37.6359 126.853 38.5266 125.91 39.2095C124.967 39.885 123.75 40.2227 122.258 40.2227C121.249 40.2227 120.351 40.0445 119.564 39.6883C118.784 39.3245 118.172 38.8309 117.727 38.2075C117.281 37.5765 117.059 36.8974 117.059 36.17H120.109C120.139 36.7415 120.351 37.1794 120.744 37.4838C121.137 37.7881 121.664 37.9402 122.325 37.9402C122.941 37.9402 123.405 37.8252 123.717 37.5951C124.036 37.3576 124.195 37.0495 124.195 36.671ZM140.25 34.0879C140.25 35.9436 139.827 37.4318 138.981 38.5526C138.142 39.666 137.007 40.2227 135.574 40.2227C134.357 40.2227 133.373 39.7996 132.624 38.9534V44.6317H129.406V27.9532H132.39L132.501 29.1334C133.281 28.1981 134.298 27.7305 135.552 27.7305C137.036 27.7305 138.191 28.2798 139.015 29.3783C139.839 30.4769 140.25 31.9911 140.25 33.9209V34.0879ZM137.033 33.8541C137.033 32.7333 136.832 31.8686 136.432 31.2599C136.038 30.6513 135.463 30.347 134.706 30.347C133.696 30.347 133.002 30.7329 132.624 31.5049V36.4372C133.017 37.2314 133.719 37.6285 134.728 37.6285C136.265 37.6285 137.033 36.3704 137.033 33.8541ZM145.65 40H142.422V22.8984H145.65V40ZM151.707 40H148.478V27.9532H151.707V40ZM148.289 24.8357C148.289 24.3532 148.449 23.9561 148.768 23.6444C149.094 23.3326 149.536 23.1768 150.093 23.1768C150.642 23.1768 151.08 23.3326 151.407 23.6444C151.733 23.9561 151.896 24.3532 151.896 24.8357C151.896 25.3256 151.729 25.7264 151.395 26.0382C151.069 26.3499 150.635 26.5058 150.093 26.5058C149.551 26.5058 149.113 26.3499 148.779 26.0382C148.452 25.7264 148.289 25.3256 148.289 24.8357ZM158.22 24.9916V27.9532H160.28V30.3136H158.22V36.3258C158.22 36.7712 158.306 37.0904 158.477 37.2833C158.647 37.4763 158.974 37.5728 159.456 37.5728C159.813 37.5728 160.128 37.5468 160.403 37.4949V39.9332C159.772 40.1262 159.122 40.2227 158.454 40.2227C156.198 40.2227 155.047 39.0833 155.003 36.8046V30.3136H153.244V27.9532H155.003V24.9916H158.22ZM28.7339 62.4463L30.9607 54.9532H34.4122L29.569 68.8705L29.3018 69.5051C28.5818 71.0787 27.3942 71.8655 25.7389 71.8655C25.2713 71.8655 24.7963 71.795 24.3138 71.6539V69.2156L24.8037 69.2268C25.4123 69.2268 25.8651 69.134 26.162 68.9484C26.4663 68.7629 26.7039 68.4548 26.8746 68.0243L27.2531 67.0334L23.0334 54.9532H26.496L28.7339 62.4463ZM35.0023 60.8653C35.0023 59.6702 35.2324 58.6051 35.6926 57.6698C36.1528 56.7346 36.8134 56.0109 37.6744 55.4987C38.5428 54.9866 39.5486 54.7305 40.6917 54.7305C42.3172 54.7305 43.6421 55.2278 44.6664 56.2224C45.6982 57.2171 46.2734 58.568 46.3922 60.2752L46.4145 61.0991C46.4145 62.9473 45.8986 64.4318 44.8669 65.5526C43.8351 66.666 42.4508 67.2227 40.7139 67.2227C38.9771 67.2227 37.589 66.666 36.5499 65.5526C35.5181 64.4392 35.0023 62.925 35.0023 61.01V60.8653ZM38.22 61.0991C38.22 62.2421 38.4352 63.118 38.8657 63.7267C39.2962 64.3279 39.9123 64.6285 40.7139 64.6285C41.4933 64.6285 42.102 64.3316 42.5399 63.7378C42.9778 63.1366 43.1968 62.179 43.1968 60.8653C43.1968 59.7444 42.9778 58.876 42.5399 58.2599C42.102 57.6439 41.4859 57.3358 40.6917 57.3358C39.9049 57.3358 39.2962 57.6439 38.8657 58.2599C38.4352 58.8686 38.22 59.815 38.22 61.0991ZM55.611 65.7753C54.8168 66.7402 53.7183 67.2227 52.3154 67.2227C51.0239 67.2227 50.0367 66.8515 49.3538 66.1093C48.6783 65.367 48.3332 64.2796 48.3184 62.8471V54.9532H51.536V62.7357C51.536 63.9902 52.1076 64.6174 53.2506 64.6174C54.3418 64.6174 55.0914 64.2388 55.4997 63.4817V54.9532H58.7285V67H55.7001L55.611 65.7753ZM67.925 57.9705C67.4871 57.9111 67.1011 57.8814 66.7671 57.8814C65.5498 57.8814 64.7519 58.2933 64.3733 59.1172V67H61.1557V54.9532H64.1952L64.2843 56.3895C64.93 55.2835 65.8245 54.7305 66.9675 54.7305C67.3238 54.7305 67.6578 54.7788 67.9696 54.8752L67.925 57.9705ZM79.0143 51.9916V54.9532H81.0741V57.3136H79.0143V63.3258C79.0143 63.7712 79.0997 64.0904 79.2704 64.2833C79.4411 64.4763 79.7677 64.5728 80.2502 64.5728C80.6065 64.5728 80.9219 64.5468 81.1966 64.4949V66.9332C80.5657 67.1262 79.9162 67.2227 79.2482 67.2227C76.9917 67.2227 75.8412 66.0833 75.7967 63.8046V57.3136H74.0375V54.9532H75.7967V51.9916H79.0143ZM89.8476 67C89.6991 66.7105 89.5915 66.3505 89.5247 65.92C88.7453 66.7885 87.7321 67.2227 86.4851 67.2227C85.305 67.2227 84.3252 66.8812 83.5458 66.1984C82.7739 65.5155 82.3879 64.6545 82.3879 63.6153C82.3879 62.3386 82.8592 61.3589 83.8019 60.676C84.752 59.9931 86.1214 59.648 87.9103 59.6405H89.3911V58.9502C89.3911 58.3935 89.2463 57.9482 88.9569 57.6142C88.6748 57.2802 88.2257 57.1132 87.6097 57.1132C87.0678 57.1132 86.641 57.243 86.3293 57.5028C86.0249 57.7626 85.8728 58.1189 85.8728 58.5717H82.6551C82.6551 57.874 82.8704 57.2282 83.3009 56.6344C83.7314 56.0406 84.34 55.5767 85.1268 55.2427C85.9136 54.9012 86.7969 54.7305 87.7767 54.7305C89.2612 54.7305 90.4377 55.1053 91.3061 55.855C92.182 56.5973 92.6199 57.6439 92.6199 58.9948V64.2165C92.6273 65.3596 92.7869 66.2243 93.0986 66.8107V67H89.8476ZM87.1866 64.7621C87.6616 64.7621 88.0996 64.6582 88.5004 64.4504C88.9012 64.2351 89.1981 63.9493 89.3911 63.593V61.5222H88.1886C86.5779 61.5222 85.7206 62.0788 85.6167 63.1922L85.6056 63.3815C85.6056 63.7823 85.7466 64.1126 86.0287 64.3724C86.3107 64.6322 86.6967 64.7621 87.1866 64.7621ZM105.947 61.0879C105.947 63.0178 105.535 64.5246 104.711 65.6083C103.887 66.6845 102.737 67.2227 101.26 67.2227C99.9534 67.2227 98.9105 66.7217 98.1311 65.7196L97.9864 67H95.0916V49.8984H98.3093V56.0332C99.0515 55.1647 100.028 54.7305 101.237 54.7305C102.707 54.7305 103.858 55.2724 104.689 56.3561C105.528 57.4323 105.947 58.9502 105.947 60.9098V61.0879ZM102.729 60.8541C102.729 59.6368 102.536 58.7498 102.15 58.1931C101.764 57.629 101.189 57.347 100.425 57.347C99.4004 57.347 98.6953 57.7663 98.3093 58.6051V63.3592C98.7027 64.2054 99.4152 64.6285 100.447 64.6285C101.486 64.6285 102.169 64.1163 102.496 63.092C102.651 62.6021 102.729 61.8562 102.729 60.8541Z" fill="white"/>
</svg>
