<svg width="176" height="66" viewBox="0 0 176 66" fill="none" xmlns="http://www.w3.org/2000/svg">
<rect width="175.576" height="65.366" rx="18.2417" fill="black"/>
<rect x="0.380035" y="0.380035" width="174.816" height="64.6059" rx="17.8616" stroke="white" stroke-opacity="0.5" stroke-width="0.76007"/>
<path d="M35.1207 35.8248C35.1207 35.1122 34.8683 34.563 34.3636 34.177C33.8662 33.791 32.9644 33.4013 31.658 33.0079C30.3517 32.6146 29.3125 32.1766 28.5406 31.6942C27.0635 30.7663 26.3249 29.5565 26.3249 28.0645C26.3249 26.7582 26.8556 25.6819 27.9171 24.8357C28.9859 23.9895 30.3702 23.5665 32.07 23.5665C33.1982 23.5665 34.204 23.7743 35.0873 24.1899C35.9705 24.6056 36.6646 25.1994 37.1693 25.9714C37.674 26.7359 37.9264 27.5858 37.9264 28.521H35.1207C35.1207 27.6748 34.8534 27.0142 34.319 26.5392C33.792 26.0567 33.0349 25.8155 32.0477 25.8155C31.1273 25.8155 30.411 26.0122 29.8989 26.4056C29.3942 26.799 29.1418 27.3482 29.1418 28.0534C29.1418 28.6472 29.4164 29.1445 29.9657 29.5453C30.515 29.9387 31.4205 30.3247 32.6823 30.7032C33.9442 31.0744 34.9574 31.5012 35.7219 31.9836C36.4864 32.4587 37.0468 33.0079 37.4031 33.6314C37.7594 34.2475 37.9375 34.9712 37.9375 35.8025C37.9375 37.1534 37.4179 38.2297 36.3788 39.0314C35.347 39.8256 33.9442 40.2227 32.1702 40.2227C30.9974 40.2227 29.9174 40.0074 28.9302 39.5769C27.9505 39.139 27.1859 38.5378 26.6367 37.7732C26.0948 37.0087 25.8239 36.118 25.8239 35.1011H28.6408C28.6408 36.0215 28.9451 36.7341 29.5537 37.2388C30.1624 37.7435 31.0345 37.9959 32.1702 37.9959C33.15 37.9959 33.8848 37.7992 34.3747 37.4058C34.872 37.005 35.1207 36.478 35.1207 35.8248ZM44.0611 34.8339L42.8587 36.0698V40H40.1532V22.8984H42.8587V32.763L43.7048 31.7053L47.0339 27.9532H50.2849L45.8091 32.9745L50.7637 40H47.6351L44.0611 34.8339ZM54.9389 40H52.2334V27.9532H54.9389V40ZM52.0664 24.8246C52.0664 24.4089 52.1963 24.0638 52.456 23.7891C52.7233 23.5145 53.1018 23.3772 53.5917 23.3772C54.0816 23.3772 54.4601 23.5145 54.7273 23.7891C54.9946 24.0638 55.1282 24.4089 55.1282 24.8246C55.1282 25.2328 54.9946 25.5743 54.7273 25.8489C54.4601 26.1161 54.0816 26.2497 53.5917 26.2497C53.1018 26.2497 52.7233 26.1161 52.456 25.8489C52.1963 25.5743 52.0664 25.2328 52.0664 24.8246ZM68.4442 34.0991C68.4442 35.9621 68.0212 37.4504 67.175 38.5637C66.3288 39.6697 65.1932 40.2227 63.768 40.2227C62.4468 40.2227 61.3891 39.7885 60.5949 38.92V44.6317H57.8894V27.9532H60.3833L60.4947 29.1779C61.2889 28.213 62.3689 27.7305 63.7346 27.7305C65.2043 27.7305 66.3548 28.2798 67.1861 29.3783C68.0249 30.4694 68.4442 31.9873 68.4442 33.9321V34.0991ZM65.7498 33.8653C65.7498 32.6628 65.5086 31.709 65.0261 31.0039C64.5511 30.2987 63.8682 29.9461 62.9775 29.9461C61.8716 29.9461 61.0773 30.4026 60.5949 31.3156V36.6598C61.0848 37.5951 61.8864 38.0627 62.9998 38.0627C63.8608 38.0627 64.5325 37.7176 65.015 37.0273C65.5049 36.3295 65.7498 35.2755 65.7498 33.8653ZM79.8119 25.025V27.9532H81.9384V29.9573H79.8119V36.6821C79.8119 37.1423 79.901 37.4763 80.0791 37.6842C80.2647 37.8846 80.5913 37.9848 81.0589 37.9848C81.3706 37.9848 81.6861 37.9477 82.0053 37.8734V39.9666C81.3892 40.1373 80.7954 40.2227 80.2238 40.2227C78.1455 40.2227 77.1064 39.0759 77.1064 36.7823V29.9573H75.1245V27.9532H77.1064V25.025H79.8119ZM86.6815 29.267C87.5647 28.2427 88.6818 27.7305 90.0327 27.7305C92.601 27.7305 93.9036 29.1965 93.9407 32.1284V40H91.2352V32.2286C91.2352 31.3973 91.0534 30.8109 90.6896 30.4694C90.3334 30.1206 89.8064 29.9461 89.1086 29.9461C88.0249 29.9461 87.2159 30.4286 86.6815 31.3935V40H83.9759V22.8984H86.6815V29.267ZM101.99 40.2227C100.276 40.2227 98.8842 39.6845 97.8153 38.6083C96.7539 37.5246 96.2232 36.0846 96.2232 34.2883V33.9543C96.2232 32.7519 96.4533 31.6793 96.9135 30.7366C97.3811 29.7866 98.0343 29.048 98.873 28.521C99.7118 27.994 100.647 27.7305 101.679 27.7305C103.319 27.7305 104.585 28.2538 105.475 29.3004C106.374 30.347 106.823 31.8278 106.823 33.7428V34.8339H98.951C99.0326 35.8285 99.3629 36.6153 99.9419 37.1943C100.528 37.7732 101.263 38.0627 102.146 38.0627C103.386 38.0627 104.395 37.5617 105.175 36.5596L106.633 37.9514C106.151 38.6714 105.505 39.2318 104.696 39.6326C103.894 40.026 102.993 40.2227 101.99 40.2227ZM101.668 29.9016C100.925 29.9016 100.324 30.1614 99.8639 30.681C99.4112 31.2006 99.1217 31.9243 98.9955 32.8521H104.15V32.6517C104.091 31.7461 103.85 31.0632 103.427 30.603C103.004 30.1354 102.417 29.9016 101.668 29.9016ZM117.489 40H114.783V22.8984H117.489V40ZM123.323 40H120.617V27.9532H123.323V40ZM120.45 24.8246C120.45 24.4089 120.58 24.0638 120.84 23.7891C121.107 23.5145 121.486 23.3772 121.976 23.3772C122.466 23.3772 122.844 23.5145 123.111 23.7891C123.379 24.0638 123.512 24.4089 123.512 24.8246C123.512 25.2328 123.379 25.5743 123.111 25.8489C122.844 26.1161 122.466 26.2497 121.976 26.2497C121.486 26.2497 121.107 26.1161 120.84 25.8489C120.58 25.5743 120.45 25.2328 120.45 24.8246ZM128.79 27.9532L128.868 29.3449C129.758 28.2686 130.927 27.7305 132.375 27.7305C134.884 27.7305 136.16 29.1668 136.205 32.0393V40H133.499V32.1952C133.499 31.4307 133.332 30.8665 132.998 30.5028C132.672 30.1317 132.134 29.9461 131.384 29.9461C130.293 29.9461 129.48 30.4397 128.946 31.4269V40H126.24V27.9532H128.79ZM144.277 40.2227C142.562 40.2227 141.17 39.6845 140.102 38.6083C139.04 37.5246 138.509 36.0846 138.509 34.2883V33.9543C138.509 32.7519 138.74 31.6793 139.2 30.7366C139.667 29.7866 140.321 29.048 141.159 28.521C141.998 27.994 142.933 27.7305 143.965 27.7305C145.605 27.7305 146.871 28.2538 147.762 29.3004C148.66 30.347 149.109 31.8278 149.109 33.7428V34.8339H141.237C141.319 35.8285 141.649 36.6153 142.228 37.1943C142.815 37.7732 143.549 38.0627 144.433 38.0627C145.672 38.0627 146.682 37.5617 147.461 36.5596L148.92 37.9514C148.437 38.6714 147.791 39.2318 146.982 39.6326C146.181 40.026 145.279 40.2227 144.277 40.2227ZM143.954 29.9016C143.212 29.9016 142.61 30.1614 142.15 30.681C141.697 31.2006 141.408 31.9243 141.282 32.8521H146.437V32.6517C146.377 31.7461 146.136 31.0632 145.713 30.603C145.29 30.1354 144.704 29.9016 143.954 29.9016Z" fill="white"/>
</svg>
