<svg width="285" height="113" viewBox="0 0 285 113" fill="none" xmlns="http://www.w3.org/2000/svg">
<rect width="285" height="113" rx="18.2417" fill="black"/>
<rect x="0.380035" y="0.380035" width="284.24" height="112.24" rx="17.8616" stroke="white" stroke-opacity="0.5" stroke-width="0.76007"/>
<path d="M40.5074 51H37.6905L30.4647 39.4987V51H27.6478V34.7891H30.4647L37.7128 46.3349V34.7891H40.5074V51ZM43.0682 44.8653C43.0682 43.6851 43.302 42.6236 43.7696 41.681C44.2372 40.7309 44.8941 40.0035 45.7403 39.4987C46.5865 38.9866 47.5588 38.7305 48.6574 38.7305C50.2829 38.7305 51.6004 39.2538 52.6099 40.3004C53.6268 41.347 54.176 42.735 54.2577 44.4644L54.2688 45.0991C54.2688 46.2867 54.0387 47.3481 53.5785 48.2833C53.1257 49.2186 52.4726 49.9423 51.619 50.4544C50.7728 50.9666 49.793 51.2227 48.6796 51.2227C46.9799 51.2227 45.6178 50.6586 44.5935 49.5303C43.5766 48.3947 43.0682 46.8842 43.0682 44.9989V44.8653ZM45.7737 45.0991C45.7737 46.3386 46.0298 47.311 46.5419 48.0161C47.0541 48.7139 47.7667 49.0627 48.6796 49.0627C49.5926 49.0627 50.3015 48.7064 50.8062 47.9939C51.3183 47.2813 51.5744 46.2384 51.5744 44.8653C51.5744 43.648 51.3109 42.683 50.7839 41.9705C50.2643 41.2579 49.5555 40.9016 48.6574 40.9016C47.7741 40.9016 47.0726 41.2542 46.5531 41.9593C46.0335 42.657 45.7737 43.7036 45.7737 45.0991ZM64.7792 38.9532L64.8571 40.2113C65.7033 39.2241 66.8612 38.7305 68.3309 38.7305C69.9415 38.7305 71.0438 39.3466 71.6376 40.5787C72.5135 39.3466 73.7456 38.7305 75.334 38.7305C76.6627 38.7305 77.6499 39.0979 78.2956 39.8328C78.9488 40.5676 79.2828 41.6513 79.2977 43.0838V51H76.5922V43.1618C76.5922 42.3973 76.4252 41.8369 76.0911 41.4806C75.7571 41.1243 75.2041 40.9461 74.4322 40.9461C73.8161 40.9461 73.3114 41.1132 72.918 41.4472C72.532 41.7738 72.2611 42.2043 72.1052 42.7387L72.1164 51H69.4108V43.0727C69.3737 41.655 68.65 40.9461 67.2397 40.9461C66.156 40.9461 65.3878 41.3878 64.935 42.2711V51H62.2295V38.9532H64.7792ZM81.569 44.8653C81.569 43.6851 81.8028 42.6236 82.2704 41.681C82.738 40.7309 83.3949 40.0035 84.2411 39.4987C85.0873 38.9866 86.0596 38.7305 87.1582 38.7305C88.7837 38.7305 90.1012 39.2538 91.1107 40.3004C92.1276 41.347 92.6768 42.735 92.7585 44.4644L92.7696 45.0991C92.7696 46.2867 92.5395 47.3481 92.0793 48.2833C91.6266 49.2186 90.9734 49.9423 90.1198 50.4544C89.2736 50.9666 88.2938 51.2227 87.1804 51.2227C85.4807 51.2227 84.1186 50.6586 83.0943 49.5303C82.0774 48.3947 81.569 46.8842 81.569 44.9989V44.8653ZM84.2745 45.0991C84.2745 46.3386 84.5306 47.311 85.0427 48.0161C85.5549 48.7139 86.2675 49.0627 87.1804 49.0627C88.0934 49.0627 88.8023 48.7064 89.307 47.9939C89.8192 47.2813 90.0752 46.2384 90.0752 44.8653C90.0752 43.648 89.8117 42.683 89.2847 41.9705C88.7652 41.2579 88.0563 40.9016 87.1582 40.9016C86.2749 40.9016 85.5735 41.2542 85.0539 41.9593C84.5343 42.657 84.2745 43.7036 84.2745 45.0991ZM101.365 41.4249C101.009 41.3655 100.641 41.3358 100.263 41.3358C99.0231 41.3358 98.1881 41.8109 97.7576 42.761V51H95.0521V38.9532H97.6351L97.7019 40.3004C98.3551 39.2538 99.2607 38.7305 100.419 38.7305C100.805 38.7305 101.124 38.7825 101.376 38.8864L101.365 41.4249ZM108.157 51.2227C106.442 51.2227 105.05 50.6845 103.981 49.6083C102.92 48.5246 102.389 47.0846 102.389 45.2883V44.9543C102.389 43.7519 102.619 42.6793 103.08 41.7366C103.547 40.7866 104.2 40.048 105.039 39.521C105.878 38.994 106.813 38.7305 107.845 38.7305C109.485 38.7305 110.751 39.2538 111.641 40.3004C112.54 41.347 112.989 42.8278 112.989 44.7428V45.8339H105.117C105.199 46.8285 105.529 47.6153 106.108 48.1943C106.694 48.7732 107.429 49.0627 108.312 49.0627C109.552 49.0627 110.562 48.5617 111.341 47.5596L112.799 48.9514C112.317 49.6714 111.671 50.2318 110.862 50.6326C110.06 51.026 109.159 51.2227 108.157 51.2227ZM107.834 40.9016C107.091 40.9016 106.49 41.1614 106.03 41.681C105.577 42.2006 105.288 42.9243 105.162 43.8521H110.317V43.6517C110.257 42.7461 110.016 42.0632 109.593 41.603C109.17 41.1354 108.583 40.9016 107.834 40.9016ZM123.655 51H120.949V33.8984H123.655V51ZM126.104 44.8653C126.104 43.6851 126.338 42.6236 126.806 41.681C127.273 40.7309 127.93 40.0035 128.776 39.4987C129.623 38.9866 130.595 38.7305 131.694 38.7305C133.319 38.7305 134.637 39.2538 135.646 40.3004C136.663 41.347 137.212 42.735 137.294 44.4644L137.305 45.0991C137.305 46.2867 137.075 47.3481 136.615 48.2833C136.162 49.2186 135.509 49.9423 134.655 50.4544C133.809 50.9666 132.829 51.2227 131.716 51.2227C130.016 51.2227 128.654 50.6586 127.63 49.5303C126.613 48.3947 126.104 46.8842 126.104 44.9989V44.8653ZM128.81 45.0991C128.81 46.3386 129.066 47.311 129.578 48.0161C130.09 48.7139 130.803 49.0627 131.716 49.0627C132.629 49.0627 133.338 48.7064 133.842 47.9939C134.355 47.2813 134.611 46.2384 134.611 44.8653C134.611 43.648 134.347 42.683 133.82 41.9705C133.301 41.2579 132.592 40.9016 131.694 40.9016C130.81 40.9016 130.109 41.2542 129.589 41.9593C129.07 42.657 128.81 43.7036 128.81 45.0991ZM146.346 47.7267C146.346 47.2442 146.145 46.8768 145.744 46.6244C145.351 46.372 144.694 46.1494 143.774 45.9564C142.853 45.7634 142.085 45.5184 141.469 45.2215C140.118 44.5684 139.443 43.622 139.443 42.3824C139.443 41.3433 139.881 40.4748 140.756 39.7771C141.632 39.0794 142.746 38.7305 144.097 38.7305C145.537 38.7305 146.698 39.0868 147.582 39.7994C148.472 40.5119 148.918 41.436 148.918 42.5717H146.212C146.212 42.0521 146.019 41.6216 145.633 41.2802C145.247 40.9313 144.735 40.7569 144.097 40.7569C143.503 40.7569 143.017 40.8942 142.638 41.1688C142.267 41.4435 142.081 41.8109 142.081 42.2711C142.081 42.6867 142.256 43.0096 142.605 43.2397C142.954 43.4698 143.659 43.7036 144.72 43.9411C145.782 44.1712 146.613 44.4496 147.214 44.7762C147.823 45.0954 148.272 45.4813 148.561 45.9341C148.858 46.3869 149.007 46.9361 149.007 47.5819C149.007 48.6656 148.558 49.5452 147.659 50.2206C146.761 50.8887 145.585 51.2227 144.13 51.2227C143.143 51.2227 142.263 51.0445 141.491 50.6883C140.719 50.332 140.118 49.8421 139.688 49.2186C139.257 48.5951 139.042 47.9233 139.042 47.2034H141.669C141.707 47.8417 141.948 48.3353 142.393 48.6842C142.839 49.0256 143.429 49.1963 144.163 49.1963C144.876 49.1963 145.418 49.0627 145.789 48.7955C146.16 48.5209 146.346 48.1646 146.346 47.7267ZM154.763 36.025V38.9532H156.889V40.9573H154.763V47.6821C154.763 48.1423 154.852 48.4763 155.03 48.6842C155.216 48.8846 155.542 48.9848 156.01 48.9848C156.322 48.9848 156.637 48.9477 156.956 48.8734V50.9666C156.34 51.1373 155.746 51.2227 155.175 51.2227C153.096 51.2227 152.057 50.0759 152.057 47.7823V40.9573H150.075V38.9532H152.057V36.025H154.763ZM164.138 44.8653C164.138 43.6851 164.371 42.6236 164.839 41.681C165.307 40.7309 165.963 40.0035 166.81 39.4987C167.656 38.9866 168.628 38.7305 169.727 38.7305C171.352 38.7305 172.67 39.2538 173.679 40.3004C174.696 41.347 175.245 42.735 175.327 44.4644L175.338 45.0991C175.338 46.2867 175.108 47.3481 174.648 48.2833C174.195 49.2186 173.542 49.9423 172.688 50.4544C171.842 50.9666 170.862 51.2227 169.749 51.2227C168.049 51.2227 166.687 50.6586 165.663 49.5303C164.646 48.3947 164.138 46.8842 164.138 44.9989V44.8653ZM166.843 45.0991C166.843 46.3386 167.099 47.311 167.611 48.0161C168.123 48.7139 168.836 49.0627 169.749 49.0627C170.662 49.0627 171.371 48.7064 171.876 47.9939C172.388 47.2813 172.644 46.2384 172.644 44.8653C172.644 43.648 172.38 42.683 171.853 41.9705C171.334 41.2579 170.625 40.9016 169.727 40.9016C168.843 40.9016 168.142 41.2542 167.622 41.9593C167.103 42.657 166.843 43.7036 166.843 45.0991ZM183.934 41.4249C183.577 41.3655 183.21 41.3358 182.831 41.3358C181.592 41.3358 180.757 41.8109 180.326 42.761V51H177.621V38.9532H180.204L180.27 40.3004C180.924 39.2538 181.829 38.7305 182.987 38.7305C183.373 38.7305 183.692 38.7825 183.945 38.8864L183.934 41.4249ZM28.3381 78V67.9573H26.501V65.9532H28.3381V64.8509C28.3381 63.5149 28.7092 62.4831 29.4515 61.7557C30.1937 61.0283 31.2329 60.6646 32.569 60.6646C33.044 60.6646 33.5487 60.7314 34.0832 60.865L34.0164 62.9805C33.7195 62.9211 33.3743 62.8914 32.9809 62.8914C31.6894 62.8914 31.0436 63.5557 31.0436 64.8843V65.9532H33.4931V67.9573H31.0436V78H28.3381ZM34.9627 71.8653C34.9627 70.6851 35.1966 69.6236 35.6642 68.681C36.1318 67.7309 36.7887 67.0035 37.6349 66.4987C38.481 65.9866 39.4534 65.7305 40.5519 65.7305C42.1775 65.7305 43.495 66.2538 44.5044 67.3004C45.5213 68.347 46.0706 69.735 46.1522 71.4644L46.1634 72.0991C46.1634 73.2867 45.9333 74.3481 45.4731 75.2833C45.0203 76.2186 44.3671 76.9423 43.5135 77.4544C42.6674 77.9666 41.6876 78.2227 40.5742 78.2227C38.8744 78.2227 37.5124 77.6586 36.4881 76.5303C35.4712 75.3947 34.9627 73.8842 34.9627 71.9989V71.8653ZM37.6683 72.0991C37.6683 73.3386 37.9243 74.311 38.4365 75.0161C38.9487 75.7139 39.6612 76.0627 40.5742 76.0627C41.4872 76.0627 42.196 75.7064 42.7008 74.9939C43.2129 74.2813 43.469 73.2384 43.469 71.8653C43.469 70.648 43.2055 69.683 42.6785 68.9705C42.1589 68.2579 41.4501 67.9016 40.5519 67.9016C39.6686 67.9016 38.9672 68.2542 38.4476 68.9593C37.9281 69.657 37.6683 70.7036 37.6683 72.0991ZM54.7587 68.4249C54.4024 68.3655 54.035 68.3358 53.6565 68.3358C52.4169 68.3358 51.5819 68.8109 51.1513 69.761V78H48.4458V65.9532H51.0289L51.0957 67.3004C51.7489 66.2538 52.6544 65.7305 53.8123 65.7305C54.1983 65.7305 54.5175 65.7825 54.7698 65.8864L54.7587 68.4249ZM55.7719 71.8875C55.7719 70.017 56.2098 68.5251 57.0857 67.4117C57.969 66.2909 59.138 65.7305 60.5928 65.7305C61.966 65.7305 63.046 66.2093 63.8328 67.1668L63.9553 65.9532H66.3936V77.6326C66.3936 79.2136 65.9 80.4606 64.9128 81.3736C63.933 82.2865 62.6081 82.743 60.938 82.743C60.0547 82.743 59.19 82.5575 58.3438 82.1863C57.5051 81.8226 56.8667 81.3439 56.4288 80.7501L57.7092 79.1245C58.5405 80.1117 59.5648 80.6053 60.7821 80.6053C61.6802 80.6053 62.3891 80.3604 62.9087 79.8705C63.4283 79.388 63.688 78.6755 63.688 77.7328V76.92C62.9087 77.7885 61.8695 78.2227 60.5706 78.2227C59.1603 78.2227 58.0061 77.6623 57.1079 76.5415C56.2172 75.4207 55.7719 73.8693 55.7719 71.8875ZM58.4663 72.1213C58.4663 73.3312 58.7112 74.285 59.2011 74.9827C59.6984 75.673 60.385 76.0182 61.2609 76.0182C62.352 76.0182 63.161 75.5506 63.688 74.6153V69.3156C63.1759 68.4026 62.3743 67.9461 61.2831 67.9461C60.3924 67.9461 59.6984 68.2987 59.2011 69.0039C58.7112 69.709 58.4663 70.7482 58.4663 72.1213ZM68.676 71.8653C68.676 70.6851 68.9098 69.6236 69.3774 68.681C69.8451 67.7309 70.502 67.0035 71.3481 66.4987C72.1943 65.9866 73.1667 65.7305 74.2652 65.7305C75.8907 65.7305 77.2082 66.2538 78.2177 67.3004C79.2346 68.347 79.7839 69.735 79.8655 71.4644L79.8766 72.0991C79.8766 73.2867 79.6465 74.3481 79.1863 75.2833C78.7336 76.2186 78.0804 76.9423 77.2268 77.4544C76.3806 77.9666 75.4008 78.2227 74.2875 78.2227C72.5877 78.2227 71.2257 77.6586 70.2013 76.5303C69.1844 75.3947 68.676 73.8842 68.676 71.9989V71.8653ZM71.3815 72.0991C71.3815 73.3386 71.6376 74.311 72.1498 75.0161C72.6619 75.7139 73.3745 76.0627 74.2875 76.0627C75.2004 76.0627 75.9093 75.7064 76.414 74.9939C76.9262 74.2813 77.1823 73.2384 77.1823 71.8653C77.1823 70.648 76.9188 69.683 76.3918 68.9705C75.8722 68.2579 75.1633 67.9016 74.2652 67.9016C73.3819 67.9016 72.6805 68.2542 72.1609 68.9593C71.6413 69.657 71.3815 70.7036 71.3815 72.0991ZM85.5549 63.025V65.9532H87.6815V67.9573H85.5549V74.6821C85.5549 75.1423 85.644 75.4763 85.8221 75.6842C86.0077 75.8846 86.3343 75.9848 86.8019 75.9848C87.1136 75.9848 87.4291 75.9477 87.7483 75.8734V77.9666C87.1322 78.1373 86.5384 78.2227 85.9669 78.2227C83.8885 78.2227 82.8494 77.0759 82.8494 74.7823V67.9573H80.8676V65.9532H82.8494V63.025H85.5549ZM93.1482 63.025V65.9532H95.2747V67.9573H93.1482V74.6821C93.1482 75.1423 93.2373 75.4763 93.4154 75.6842C93.601 75.8846 93.9276 75.9848 94.3952 75.9848C94.7069 75.9848 95.0224 75.9477 95.3415 75.8734V77.9666C94.7255 78.1373 94.1317 78.2227 93.5601 78.2227C91.4818 78.2227 90.4427 77.0759 90.4427 74.7823V67.9573H88.4608V65.9532H90.4427V63.025H93.1482ZM102.656 78.2227C100.942 78.2227 99.5501 77.6845 98.4813 76.6083C97.4199 75.5246 96.8892 74.0846 96.8892 72.2883V71.9543C96.8892 70.7519 97.1193 69.6793 97.5794 68.7366C98.0471 67.7866 98.7003 67.048 99.539 66.521C100.378 65.994 101.313 65.7305 102.345 65.7305C103.985 65.7305 105.251 66.2538 106.141 67.3004C107.04 68.347 107.489 69.8278 107.489 71.7428V72.8339H99.6169C99.6986 73.8285 100.029 74.6153 100.608 75.1943C101.194 75.7732 101.929 76.0627 102.812 76.0627C104.052 76.0627 105.061 75.5617 105.841 74.5596L107.299 75.9514C106.817 76.6714 106.171 77.2318 105.362 77.6326C104.56 78.026 103.659 78.2227 102.656 78.2227ZM102.334 67.9016C101.591 67.9016 100.99 68.1614 100.53 68.681C100.077 69.2006 99.7877 69.9243 99.6615 70.8521H104.816V70.6517C104.757 69.7461 104.516 69.0632 104.093 68.603C103.67 68.1354 103.083 67.9016 102.334 67.9016ZM112.109 65.9532L112.187 67.3449C113.078 66.2686 114.247 65.7305 115.694 65.7305C118.203 65.7305 119.48 67.1668 119.524 70.0393V78H116.819V70.1952C116.819 69.4307 116.652 68.8665 116.318 68.5028C115.991 68.1317 115.453 67.9461 114.703 67.9461C113.612 67.9461 112.799 68.4397 112.265 69.4269V78H109.559V65.9532H112.109ZM132.918 76.0627C133.594 76.0627 134.154 75.866 134.599 75.4726C135.045 75.0792 135.282 74.593 135.312 74.0141H137.862C137.832 74.7638 137.598 75.4652 137.16 76.1184C136.722 76.7641 136.129 77.2763 135.379 77.6549C134.629 78.0334 133.82 78.2227 132.952 78.2227C131.267 78.2227 129.931 77.6771 128.943 76.586C127.956 75.4949 127.463 73.9881 127.463 72.0657V71.7873C127.463 69.9539 127.953 68.488 128.932 67.3895C129.912 66.2835 131.248 65.7305 132.941 65.7305C134.373 65.7305 135.538 66.1499 136.437 66.9886C137.342 67.82 137.817 68.9148 137.862 70.2731H135.312C135.282 69.5828 135.045 69.015 134.599 68.5696C134.162 68.1243 133.601 67.9016 132.918 67.9016C132.042 67.9016 131.367 68.2208 130.892 68.8591C130.417 69.49 130.176 70.4513 130.168 71.7428V72.177C130.168 73.4834 130.402 74.4594 130.87 75.1052C131.345 75.7435 132.028 76.0627 132.918 76.0627ZM146.212 68.4249C145.856 68.3655 145.488 68.3358 145.11 68.3358C143.87 68.3358 143.035 68.8109 142.605 69.761V78H139.899V65.9532H142.482L142.549 67.3004C143.202 66.2538 144.108 65.7305 145.266 65.7305C145.652 65.7305 145.971 65.7825 146.223 65.8864L146.212 68.4249ZM153.004 78.2227C151.289 78.2227 149.897 77.6845 148.829 76.6083C147.767 75.5246 147.236 74.0846 147.236 72.2883V71.9543C147.236 70.7519 147.466 69.6793 147.927 68.7366C148.394 67.7866 149.047 67.048 149.886 66.521C150.725 65.994 151.66 65.7305 152.692 65.7305C154.332 65.7305 155.598 66.2538 156.489 67.3004C157.387 68.347 157.836 69.8278 157.836 71.7428V72.8339H149.964C150.046 73.8285 150.376 74.6153 150.955 75.1943C151.541 75.7732 152.276 76.0627 153.16 76.0627C154.399 76.0627 155.409 75.5617 156.188 74.5596L157.647 75.9514C157.164 76.6714 156.518 77.2318 155.709 77.6326C154.908 78.026 154.006 78.2227 153.004 78.2227ZM152.681 67.9016C151.939 67.9016 151.337 68.1614 150.877 68.681C150.424 69.2006 150.135 69.9243 150.009 70.8521H155.164V70.6517C155.104 69.7461 154.863 69.0632 154.44 68.603C154.017 68.1354 153.43 67.9016 152.681 67.9016ZM159.439 71.8875C159.439 70.0319 159.87 68.5437 160.731 67.4229C161.592 66.2946 162.746 65.7305 164.193 65.7305C165.47 65.7305 166.502 66.1759 167.288 67.0666V60.8984H169.994V78H167.544L167.411 76.753C166.602 77.7328 165.522 78.2227 164.171 78.2227C162.761 78.2227 161.618 77.6549 160.742 76.5192C159.873 75.3835 159.439 73.8397 159.439 71.8875ZM162.145 72.1213C162.145 73.3461 162.378 74.3036 162.846 74.9939C163.321 75.6767 163.993 76.0182 164.861 76.0182C165.967 76.0182 166.776 75.5246 167.288 74.5374V69.3935C166.791 68.4286 165.989 67.9461 164.883 67.9461C164.008 67.9461 163.332 68.295 162.857 68.9927C162.382 69.683 162.145 70.7259 162.145 72.1213ZM175.694 78H172.989V65.9532H175.694V78ZM172.822 62.8246C172.822 62.4089 172.952 62.0638 173.212 61.7891C173.479 61.5145 173.857 61.3772 174.347 61.3772C174.837 61.3772 175.216 61.5145 175.483 61.7891C175.75 62.0638 175.884 62.4089 175.884 62.8246C175.884 63.2328 175.75 63.5743 175.483 63.8489C175.216 64.1161 174.837 64.2497 174.347 64.2497C173.857 64.2497 173.479 64.1161 173.212 63.8489C172.952 63.5743 172.822 63.2328 172.822 62.8246ZM182.041 63.025V65.9532H184.167V67.9573H182.041V74.6821C182.041 75.1423 182.13 75.4763 182.308 75.6842C182.494 75.8846 182.82 75.9848 183.288 75.9848C183.599 75.9848 183.915 75.9477 184.234 75.8734V77.9666C183.618 78.1373 183.024 78.2227 182.453 78.2227C180.374 78.2227 179.335 77.0759 179.335 74.7823V67.9573H177.353V65.9532H179.335V63.025H182.041ZM196.871 76.0627C197.546 76.0627 198.107 75.866 198.552 75.4726C198.998 75.0792 199.235 74.593 199.265 74.0141H201.814C201.785 74.7638 201.551 75.4652 201.113 76.1184C200.675 76.7641 200.081 77.2763 199.332 77.6549C198.582 78.0334 197.773 78.2227 196.904 78.2227C195.219 78.2227 193.883 77.6771 192.896 76.586C191.909 75.4949 191.415 73.9881 191.415 72.0657V71.7873C191.415 69.9539 191.905 68.488 192.885 67.3895C193.865 66.2835 195.201 65.7305 196.893 65.7305C198.326 65.7305 199.491 66.1499 200.389 66.9886C201.295 67.82 201.77 68.9148 201.814 70.2731H199.265C199.235 69.5828 198.998 69.015 198.552 68.5696C198.114 68.1243 197.554 67.9016 196.871 67.9016C195.995 67.9016 195.32 68.2208 194.845 68.8591C194.37 69.49 194.128 70.4513 194.121 71.7428V72.177C194.121 73.4834 194.355 74.4594 194.822 75.1052C195.297 75.7435 195.98 76.0627 196.871 76.0627ZM211.056 78C210.937 77.7699 210.833 77.3951 210.744 76.8755C209.883 77.7736 208.829 78.2227 207.582 78.2227C206.372 78.2227 205.385 77.8775 204.62 77.1872C203.856 76.4969 203.473 75.6433 203.473 74.6264C203.473 73.3423 203.948 72.3589 204.899 71.676C205.856 70.9857 207.222 70.6405 208.996 70.6405H210.655V69.85C210.655 69.2265 210.48 68.7292 210.131 68.3581C209.783 67.9795 209.252 67.7903 208.539 67.7903C207.923 67.7903 207.418 67.9461 207.025 68.2579C206.632 68.5622 206.435 68.9519 206.435 69.4269H203.729C203.729 68.7663 203.948 68.1503 204.386 67.5787C204.824 66.9998 205.418 66.547 206.168 66.2204C206.925 65.8938 207.767 65.7305 208.695 65.7305C210.105 65.7305 211.23 66.0868 212.069 66.7994C212.907 67.5045 213.338 68.4991 213.36 69.7832V75.2165C213.36 76.3002 213.512 77.165 213.817 77.8107V78H211.056ZM208.083 76.0516C208.617 76.0516 209.118 75.9217 209.586 75.6619C210.061 75.4021 210.417 75.0532 210.655 74.6153V72.344H209.196C208.194 72.344 207.441 72.5184 206.936 72.8673C206.431 73.2162 206.179 73.7098 206.179 74.3481C206.179 74.8677 206.35 75.2833 206.691 75.5951C207.04 75.8994 207.504 76.0516 208.083 76.0516ZM222.501 68.4249C222.145 68.3655 221.777 68.3358 221.399 68.3358C220.159 68.3358 219.324 68.8109 218.894 69.761V78H216.188V65.9532H218.771L218.838 67.3004C219.491 66.2538 220.397 65.7305 221.555 65.7305C221.941 65.7305 222.26 65.7825 222.512 65.8864L222.501 68.4249ZM223.481 71.8875C223.481 70.0319 223.911 68.5437 224.772 67.4229C225.633 66.2946 226.788 65.7305 228.235 65.7305C229.512 65.7305 230.543 66.1759 231.33 67.0666V60.8984H234.036V78H231.586L231.453 76.753C230.644 77.7328 229.564 78.2227 228.213 78.2227C226.802 78.2227 225.659 77.6549 224.784 76.5192C223.915 75.3835 223.481 73.8397 223.481 71.8875ZM226.186 72.1213C226.186 73.3461 226.42 74.3036 226.888 74.9939C227.363 75.6767 228.035 76.0182 228.903 76.0182C230.009 76.0182 230.818 75.5246 231.33 74.5374V69.3935C230.833 68.4286 230.031 67.9461 228.925 67.9461C228.049 67.9461 227.374 68.295 226.899 68.9927C226.424 69.683 226.186 70.7259 226.186 72.1213ZM243.611 74.7267C243.611 74.2442 243.41 73.8768 243.01 73.6244C242.616 73.372 241.959 73.1494 241.039 72.9564C240.119 72.7634 239.35 72.5184 238.734 72.2215C237.383 71.5684 236.708 70.622 236.708 69.3824C236.708 68.3433 237.146 67.4748 238.022 66.7771C238.898 66.0794 240.011 65.7305 241.362 65.7305C242.802 65.7305 243.963 66.0868 244.847 66.7994C245.737 67.5119 246.183 68.436 246.183 69.5717H243.477C243.477 69.0521 243.284 68.6216 242.898 68.2802C242.512 67.9313 242 67.7569 241.362 67.7569C240.768 67.7569 240.282 67.8942 239.903 68.1688C239.532 68.4435 239.347 68.8109 239.347 69.2711C239.347 69.6867 239.521 70.0096 239.87 70.2397C240.219 70.4698 240.924 70.7036 241.985 70.9411C243.047 71.1712 243.878 71.4496 244.479 71.7762C245.088 72.0954 245.537 72.4813 245.827 72.9341C246.123 73.3869 246.272 73.9361 246.272 74.5819C246.272 75.6656 245.823 76.5452 244.925 77.2206C244.027 77.8887 242.85 78.2227 241.395 78.2227C240.408 78.2227 239.528 78.0445 238.757 77.6883C237.985 77.332 237.383 76.8421 236.953 76.2186C236.522 75.5951 236.307 74.9233 236.307 74.2034H238.935C238.972 74.8417 239.213 75.3353 239.658 75.6842C240.104 76.0256 240.694 76.1963 241.429 76.1963C242.141 76.1963 242.683 76.0627 243.054 75.7955C243.425 75.5209 243.611 75.1646 243.611 74.7267Z" fill="white"/>
</svg>
