<svg width="267" height="99" viewBox="0 0 267 99" fill="none" xmlns="http://www.w3.org/2000/svg">
<rect width="266.785" height="98.8091" rx="18.2417" fill="black"/>
<rect x="0.380035" y="0.380035" width="266.025" height="98.049" rx="17.8616" stroke="white" stroke-opacity="0.5" stroke-width="0.76007"/>
<path d="M36.5074 44H33.6905L26.4647 32.4987V44H23.6478V27.7891H26.4647L33.7128 39.3349V27.7891H36.5074V44ZM39.0682 37.8653C39.0682 36.6851 39.302 35.6236 39.7696 34.681C40.2372 33.7309 40.8941 33.0035 41.7403 32.4987C42.5865 31.9866 43.5588 31.7305 44.6574 31.7305C46.2829 31.7305 47.6004 32.2538 48.6099 33.3004C49.6268 34.347 50.176 35.735 50.2577 37.4644L50.2688 38.0991C50.2688 39.2867 50.0387 40.3481 49.5785 41.2833C49.1257 42.2186 48.4726 42.9423 47.619 43.4544C46.7728 43.9666 45.793 44.2227 44.6796 44.2227C42.9799 44.2227 41.6178 43.6586 40.5935 42.5303C39.5766 41.3947 39.0682 39.8842 39.0682 37.9989V37.8653ZM41.7737 38.0991C41.7737 39.3386 42.0298 40.311 42.5419 41.0161C43.0541 41.7139 43.7667 42.0627 44.6796 42.0627C45.5926 42.0627 46.3015 41.7064 46.8062 40.9939C47.3183 40.2813 47.5744 39.2384 47.5744 37.8653C47.5744 36.648 47.3109 35.683 46.7839 34.9705C46.2643 34.2579 45.5555 33.9016 44.6574 33.9016C43.7741 33.9016 43.0726 34.2542 42.5531 34.9593C42.0335 35.657 41.7737 36.7036 41.7737 38.0991ZM60.7792 31.9532L60.8571 33.2113C61.7033 32.2241 62.8612 31.7305 64.3309 31.7305C65.9415 31.7305 67.0438 32.3466 67.6376 33.5787C68.5135 32.3466 69.7456 31.7305 71.334 31.7305C72.6627 31.7305 73.6499 32.0979 74.2956 32.8328C74.9488 33.5676 75.2828 34.6513 75.2977 36.0838V44H72.5922V36.1618C72.5922 35.3973 72.4252 34.8369 72.0911 34.4806C71.7571 34.1243 71.2041 33.9461 70.4322 33.9461C69.8161 33.9461 69.3114 34.1132 68.918 34.4472C68.532 34.7738 68.2611 35.2043 68.1052 35.7387L68.1164 44H65.4108V36.0727C65.3737 34.655 64.65 33.9461 63.2397 33.9461C62.156 33.9461 61.3878 34.3878 60.935 35.2711V44H58.2295V31.9532H60.7792ZM77.569 37.8653C77.569 36.6851 77.8028 35.6236 78.2704 34.681C78.738 33.7309 79.3949 33.0035 80.2411 32.4987C81.0873 31.9866 82.0596 31.7305 83.1582 31.7305C84.7837 31.7305 86.1012 32.2538 87.1107 33.3004C88.1276 34.347 88.6768 35.735 88.7585 37.4644L88.7696 38.0991C88.7696 39.2867 88.5395 40.3481 88.0793 41.2833C87.6266 42.2186 86.9734 42.9423 86.1198 43.4544C85.2736 43.9666 84.2938 44.2227 83.1804 44.2227C81.4807 44.2227 80.1186 43.6586 79.0943 42.5303C78.0774 41.3947 77.569 39.8842 77.569 37.9989V37.8653ZM80.2745 38.0991C80.2745 39.3386 80.5306 40.311 81.0427 41.0161C81.5549 41.7139 82.2675 42.0627 83.1804 42.0627C84.0934 42.0627 84.8023 41.7064 85.307 40.9939C85.8192 40.2813 86.0752 39.2384 86.0752 37.8653C86.0752 36.648 85.8117 35.683 85.2847 34.9705C84.7652 34.2579 84.0563 33.9016 83.1582 33.9016C82.2749 33.9016 81.5735 34.2542 81.0539 34.9593C80.5343 35.657 80.2745 36.7036 80.2745 38.0991ZM97.365 34.4249C97.0087 34.3655 96.6413 34.3358 96.2627 34.3358C95.0231 34.3358 94.1881 34.8109 93.7576 35.761V44H91.0521V31.9532H93.6351L93.7019 33.3004C94.3551 32.2538 95.2607 31.7305 96.4186 31.7305C96.8045 31.7305 97.1237 31.7825 97.3761 31.8864L97.365 34.4249ZM104.157 44.2227C102.442 44.2227 101.05 43.6845 99.9814 42.6083C98.92 41.5246 98.3893 40.0846 98.3893 38.2883V37.9543C98.3893 36.7519 98.6194 35.6793 99.0796 34.7366C99.5472 33.7866 100.2 33.048 101.039 32.521C101.878 31.994 102.813 31.7305 103.845 31.7305C105.485 31.7305 106.751 32.2538 107.641 33.3004C108.54 34.347 108.989 35.8278 108.989 37.7428V38.8339H101.117C101.199 39.8285 101.529 40.6153 102.108 41.1943C102.694 41.7732 103.429 42.0627 104.312 42.0627C105.552 42.0627 106.562 41.5617 107.341 40.5596L108.799 41.9514C108.317 42.6714 107.671 43.2318 106.862 43.6326C106.06 44.026 105.159 44.2227 104.157 44.2227ZM103.834 33.9016C103.091 33.9016 102.49 34.1614 102.03 34.681C101.577 35.2006 101.288 35.9243 101.162 36.8521H106.317V36.6517C106.257 35.7461 106.016 35.0632 105.593 34.603C105.17 34.1354 104.583 33.9016 103.834 33.9016ZM119.655 44H116.949V26.8984H119.655V44ZM122.104 37.8653C122.104 36.6851 122.338 35.6236 122.806 34.681C123.273 33.7309 123.93 33.0035 124.776 32.4987C125.623 31.9866 126.595 31.7305 127.694 31.7305C129.319 31.7305 130.637 32.2538 131.646 33.3004C132.663 34.347 133.212 35.735 133.294 37.4644L133.305 38.0991C133.305 39.2867 133.075 40.3481 132.615 41.2833C132.162 42.2186 131.509 42.9423 130.655 43.4544C129.809 43.9666 128.829 44.2227 127.716 44.2227C126.016 44.2227 124.654 43.6586 123.63 42.5303C122.613 41.3947 122.104 39.8842 122.104 37.9989V37.8653ZM124.81 38.0991C124.81 39.3386 125.066 40.311 125.578 41.0161C126.09 41.7139 126.803 42.0627 127.716 42.0627C128.629 42.0627 129.338 41.7064 129.842 40.9939C130.355 40.2813 130.611 39.2384 130.611 37.8653C130.611 36.648 130.347 35.683 129.82 34.9705C129.301 34.2579 128.592 33.9016 127.694 33.9016C126.81 33.9016 126.109 34.2542 125.589 34.9593C125.07 35.657 124.81 36.7036 124.81 38.0991ZM142.346 40.7267C142.346 40.2442 142.145 39.8768 141.744 39.6244C141.351 39.372 140.694 39.1494 139.774 38.9564C138.853 38.7634 138.085 38.5184 137.469 38.2215C136.118 37.5684 135.443 36.622 135.443 35.3824C135.443 34.3433 135.881 33.4748 136.756 32.7771C137.632 32.0794 138.746 31.7305 140.097 31.7305C141.537 31.7305 142.698 32.0868 143.582 32.7994C144.472 33.5119 144.918 34.436 144.918 35.5717H142.212C142.212 35.0521 142.019 34.6216 141.633 34.2802C141.247 33.9313 140.735 33.7569 140.097 33.7569C139.503 33.7569 139.017 33.8942 138.638 34.1688C138.267 34.4435 138.081 34.8109 138.081 35.2711C138.081 35.6867 138.256 36.0096 138.605 36.2397C138.954 36.4698 139.659 36.7036 140.72 36.9411C141.782 37.1712 142.613 37.4496 143.214 37.7762C143.823 38.0954 144.272 38.4813 144.561 38.9341C144.858 39.3869 145.007 39.9361 145.007 40.5819C145.007 41.6656 144.558 42.5452 143.659 43.2206C142.761 43.8887 141.585 44.2227 140.13 44.2227C139.143 44.2227 138.263 44.0445 137.491 43.6883C136.719 43.332 136.118 42.8421 135.688 42.2186C135.257 41.5951 135.042 40.9233 135.042 40.2034H137.669C137.707 40.8417 137.948 41.3353 138.393 41.6842C138.839 42.0256 139.429 42.1963 140.163 42.1963C140.876 42.1963 141.418 42.0627 141.789 41.7955C142.16 41.5209 142.346 41.1646 142.346 40.7267ZM150.763 29.025V31.9532H152.889V33.9573H150.763V40.6821C150.763 41.1423 150.852 41.4763 151.03 41.6842C151.216 41.8846 151.542 41.9848 152.01 41.9848C152.322 41.9848 152.637 41.9477 152.956 41.8734V43.9666C152.34 44.1373 151.746 44.2227 151.175 44.2227C149.096 44.2227 148.057 43.0759 148.057 40.7823V33.9573H146.075V31.9532H148.057V29.025H150.763ZM160.138 37.8653C160.138 36.6851 160.371 35.6236 160.839 34.681C161.307 33.7309 161.963 33.0035 162.81 32.4987C163.656 31.9866 164.628 31.7305 165.727 31.7305C167.352 31.7305 168.67 32.2538 169.679 33.3004C170.696 34.347 171.245 35.735 171.327 37.4644L171.338 38.0991C171.338 39.2867 171.108 40.3481 170.648 41.2833C170.195 42.2186 169.542 42.9423 168.688 43.4544C167.842 43.9666 166.862 44.2227 165.749 44.2227C164.049 44.2227 162.687 43.6586 161.663 42.5303C160.646 41.3947 160.138 39.8842 160.138 37.9989V37.8653ZM162.843 38.0991C162.843 39.3386 163.099 40.311 163.611 41.0161C164.123 41.7139 164.836 42.0627 165.749 42.0627C166.662 42.0627 167.371 41.7064 167.876 40.9939C168.388 40.2813 168.644 39.2384 168.644 37.8653C168.644 36.648 168.38 35.683 167.853 34.9705C167.334 34.2579 166.625 33.9016 165.727 33.9016C164.843 33.9016 164.142 34.2542 163.622 34.9593C163.103 35.657 162.843 36.7036 162.843 38.0991ZM179.934 34.4249C179.577 34.3655 179.21 34.3358 178.831 34.3358C177.592 34.3358 176.757 34.8109 176.326 35.761V44H173.621V31.9532H176.204L176.27 33.3004C176.924 32.2538 177.829 31.7305 178.987 31.7305C179.373 31.7305 179.692 31.7825 179.945 31.8864L179.934 34.4249ZM24.3381 71V60.9573H22.501V58.9532H24.3381V57.8509C24.3381 56.5149 24.7092 55.4831 25.4515 54.7557C26.1937 54.0283 27.2329 53.6646 28.569 53.6646C29.044 53.6646 29.5487 53.7314 30.0832 53.865L30.0164 55.9805C29.7195 55.9211 29.3743 55.8914 28.9809 55.8914C27.6894 55.8914 27.0436 56.5557 27.0436 57.8843V58.9532H29.4931V60.9573H27.0436V71H24.3381ZM30.9627 64.8653C30.9627 63.6851 31.1966 62.6236 31.6642 61.681C32.1318 60.7309 32.7887 60.0035 33.6349 59.4987C34.481 58.9866 35.4534 58.7305 36.5519 58.7305C38.1775 58.7305 39.495 59.2538 40.5044 60.3004C41.5213 61.347 42.0706 62.735 42.1522 64.4644L42.1634 65.0991C42.1634 66.2867 41.9333 67.3481 41.4731 68.2833C41.0203 69.2186 40.3671 69.9423 39.5135 70.4544C38.6674 70.9666 37.6876 71.2227 36.5742 71.2227C34.8744 71.2227 33.5124 70.6586 32.4881 69.5303C31.4712 68.3947 30.9627 66.8842 30.9627 64.9989V64.8653ZM33.6683 65.0991C33.6683 66.3386 33.9243 67.311 34.4365 68.0161C34.9487 68.7139 35.6612 69.0627 36.5742 69.0627C37.4872 69.0627 38.196 68.7064 38.7008 67.9939C39.2129 67.2813 39.469 66.2384 39.469 64.8653C39.469 63.648 39.2055 62.683 38.6785 61.9705C38.1589 61.2579 37.4501 60.9016 36.5519 60.9016C35.6686 60.9016 34.9672 61.2542 34.4476 61.9593C33.9281 62.657 33.6683 63.7036 33.6683 65.0991ZM50.7587 61.4249C50.4024 61.3655 50.035 61.3358 49.6565 61.3358C48.4169 61.3358 47.5819 61.8109 47.1513 62.761V71H44.4458V58.9532H47.0289L47.0957 60.3004C47.7489 59.2538 48.6544 58.7305 49.8123 58.7305C50.1983 58.7305 50.5175 58.7825 50.7698 58.8864L50.7587 61.4249ZM51.7719 64.8875C51.7719 63.017 52.2098 61.5251 53.0857 60.4117C53.969 59.2909 55.138 58.7305 56.5928 58.7305C57.966 58.7305 59.046 59.2093 59.8328 60.1668L59.9553 58.9532H62.3936V70.6326C62.3936 72.2136 61.9 73.4606 60.9128 74.3736C59.933 75.2865 58.6081 75.743 56.938 75.743C56.0547 75.743 55.19 75.5575 54.3438 75.1863C53.5051 74.8226 52.8667 74.3439 52.4288 73.7501L53.7092 72.1245C54.5405 73.1117 55.5648 73.6053 56.7821 73.6053C57.6802 73.6053 58.3891 73.3604 58.9087 72.8705C59.4283 72.388 59.688 71.6755 59.688 70.7328V69.92C58.9087 70.7885 57.8695 71.2227 56.5706 71.2227C55.1603 71.2227 54.0061 70.6623 53.1079 69.5415C52.2172 68.4207 51.7719 66.8693 51.7719 64.8875ZM54.4663 65.1213C54.4663 66.3312 54.7112 67.285 55.2011 67.9827C55.6984 68.673 56.385 69.0182 57.2609 69.0182C58.352 69.0182 59.161 68.5506 59.688 67.6153V62.3156C59.1759 61.4026 58.3743 60.9461 57.2831 60.9461C56.3924 60.9461 55.6984 61.2987 55.2011 62.0039C54.7112 62.709 54.4663 63.7482 54.4663 65.1213ZM64.676 64.8653C64.676 63.6851 64.9098 62.6236 65.3774 61.681C65.8451 60.7309 66.502 60.0035 67.3481 59.4987C68.1943 58.9866 69.1667 58.7305 70.2652 58.7305C71.8907 58.7305 73.2082 59.2538 74.2177 60.3004C75.2346 61.347 75.7839 62.735 75.8655 64.4644L75.8766 65.0991C75.8766 66.2867 75.6465 67.3481 75.1863 68.2833C74.7336 69.2186 74.0804 69.9423 73.2268 70.4544C72.3806 70.9666 71.4008 71.2227 70.2875 71.2227C68.5877 71.2227 67.2257 70.6586 66.2013 69.5303C65.1844 68.3947 64.676 66.8842 64.676 64.9989V64.8653ZM67.3815 65.0991C67.3815 66.3386 67.6376 67.311 68.1498 68.0161C68.6619 68.7139 69.3745 69.0627 70.2875 69.0627C71.2004 69.0627 71.9093 68.7064 72.414 67.9939C72.9262 67.2813 73.1823 66.2384 73.1823 64.8653C73.1823 63.648 72.9188 62.683 72.3918 61.9705C71.8722 61.2579 71.1633 60.9016 70.2652 60.9016C69.3819 60.9016 68.6805 61.2542 68.1609 61.9593C67.6413 62.657 67.3815 63.7036 67.3815 65.0991ZM81.5549 56.025V58.9532H83.6815V60.9573H81.5549V67.6821C81.5549 68.1423 81.644 68.4763 81.8221 68.6842C82.0077 68.8846 82.3343 68.9848 82.8019 68.9848C83.1136 68.9848 83.4291 68.9477 83.7483 68.8734V70.9666C83.1322 71.1373 82.5384 71.2227 81.9669 71.2227C79.8885 71.2227 78.8494 70.0759 78.8494 67.7823V60.9573H76.8676V58.9532H78.8494V56.025H81.5549ZM89.1482 56.025V58.9532H91.2747V60.9573H89.1482V67.6821C89.1482 68.1423 89.2373 68.4763 89.4154 68.6842C89.601 68.8846 89.9276 68.9848 90.3952 68.9848C90.7069 68.9848 91.0224 68.9477 91.3415 68.8734V70.9666C90.7255 71.1373 90.1317 71.2227 89.5601 71.2227C87.4818 71.2227 86.4427 70.0759 86.4427 67.7823V60.9573H84.4608V58.9532H86.4427V56.025H89.1482ZM98.6565 71.2227C96.9419 71.2227 95.5501 70.6845 94.4813 69.6083C93.4199 68.5246 92.8892 67.0846 92.8892 65.2883V64.9543C92.8892 63.7519 93.1193 62.6793 93.5794 61.7366C94.0471 60.7866 94.7003 60.048 95.539 59.521C96.3778 58.994 97.313 58.7305 98.3447 58.7305C99.9851 58.7305 101.251 59.2538 102.141 60.3004C103.04 61.347 103.489 62.8278 103.489 64.7428V65.8339H95.6169C95.6986 66.8285 96.0289 67.6153 96.6079 68.1943C97.1942 68.7732 97.9291 69.0627 98.8124 69.0627C100.052 69.0627 101.061 68.5617 101.841 67.5596L103.299 68.9514C102.817 69.6714 102.171 70.2318 101.362 70.6326C100.56 71.026 99.6585 71.2227 98.6565 71.2227ZM98.3336 60.9016C97.5913 60.9016 96.9901 61.1614 96.5299 61.681C96.0771 62.2006 95.7877 62.9243 95.6615 63.8521H100.816V63.6517C100.757 62.7461 100.516 62.0632 100.093 61.603C99.6697 61.1354 99.0833 60.9016 98.3336 60.9016ZM108.109 58.9532L108.187 60.3449C109.078 59.2686 110.247 58.7305 111.694 58.7305C114.203 58.7305 115.48 60.1668 115.524 63.0393V71H112.819V63.1952C112.819 62.4307 112.652 61.8665 112.318 61.5028C111.991 61.1317 111.453 60.9461 110.703 60.9461C109.612 60.9461 108.799 61.4397 108.265 62.4269V71H105.559V58.9532H108.109ZM128.918 69.0627C129.594 69.0627 130.154 68.866 130.599 68.4726C131.045 68.0792 131.282 67.593 131.312 67.0141H133.862C133.832 67.7638 133.598 68.4652 133.16 69.1184C132.722 69.7641 132.129 70.2763 131.379 70.6549C130.629 71.0334 129.82 71.2227 128.952 71.2227C127.267 71.2227 125.931 70.6771 124.943 69.586C123.956 68.4949 123.463 66.9881 123.463 65.0657V64.7873C123.463 62.9539 123.953 61.488 124.932 60.3895C125.912 59.2835 127.248 58.7305 128.941 58.7305C130.373 58.7305 131.538 59.1499 132.437 59.9886C133.342 60.82 133.817 61.9148 133.862 63.2731H131.312C131.282 62.5828 131.045 62.015 130.599 61.5696C130.162 61.1243 129.601 60.9016 128.918 60.9016C128.042 60.9016 127.367 61.2208 126.892 61.8591C126.417 62.49 126.176 63.4513 126.168 64.7428V65.177C126.168 66.4834 126.402 67.4594 126.87 68.1052C127.345 68.7435 128.028 69.0627 128.918 69.0627ZM142.212 61.4249C141.856 61.3655 141.488 61.3358 141.11 61.3358C139.87 61.3358 139.035 61.8109 138.605 62.761V71H135.899V58.9532H138.482L138.549 60.3004C139.202 59.2538 140.108 58.7305 141.266 58.7305C141.652 58.7305 141.971 58.7825 142.223 58.8864L142.212 61.4249ZM149.004 71.2227C147.289 71.2227 145.897 70.6845 144.829 69.6083C143.767 68.5246 143.236 67.0846 143.236 65.2883V64.9543C143.236 63.7519 143.466 62.6793 143.927 61.7366C144.394 60.7866 145.047 60.048 145.886 59.521C146.725 58.994 147.66 58.7305 148.692 58.7305C150.332 58.7305 151.598 59.2538 152.489 60.3004C153.387 61.347 153.836 62.8278 153.836 64.7428V65.8339H145.964C146.046 66.8285 146.376 67.6153 146.955 68.1943C147.541 68.7732 148.276 69.0627 149.16 69.0627C150.399 69.0627 151.409 68.5617 152.188 67.5596L153.647 68.9514C153.164 69.6714 152.518 70.2318 151.709 70.6326C150.908 71.026 150.006 71.2227 149.004 71.2227ZM148.681 60.9016C147.939 60.9016 147.337 61.1614 146.877 61.681C146.424 62.2006 146.135 62.9243 146.009 63.8521H151.164V63.6517C151.104 62.7461 150.863 62.0632 150.44 61.603C150.017 61.1354 149.43 60.9016 148.681 60.9016ZM155.439 64.8875C155.439 63.0319 155.87 61.5437 156.731 60.4229C157.592 59.2946 158.746 58.7305 160.193 58.7305C161.47 58.7305 162.502 59.1759 163.288 60.0666V53.8984H165.994V71H163.544L163.411 69.753C162.602 70.7328 161.522 71.2227 160.171 71.2227C158.761 71.2227 157.618 70.6549 156.742 69.5192C155.873 68.3835 155.439 66.8397 155.439 64.8875ZM158.145 65.1213C158.145 66.3461 158.378 67.3036 158.846 67.9939C159.321 68.6767 159.993 69.0182 160.861 69.0182C161.967 69.0182 162.776 68.5246 163.288 67.5374V62.3935C162.791 61.4286 161.989 60.9461 160.883 60.9461C160.008 60.9461 159.332 61.295 158.857 61.9927C158.382 62.683 158.145 63.7259 158.145 65.1213ZM171.694 71H168.989V58.9532H171.694V71ZM168.822 55.8246C168.822 55.4089 168.952 55.0638 169.212 54.7891C169.479 54.5145 169.857 54.3772 170.347 54.3772C170.837 54.3772 171.216 54.5145 171.483 54.7891C171.75 55.0638 171.884 55.4089 171.884 55.8246C171.884 56.2328 171.75 56.5743 171.483 56.8489C171.216 57.1161 170.837 57.2497 170.347 57.2497C169.857 57.2497 169.479 57.1161 169.212 56.8489C168.952 56.5743 168.822 56.2328 168.822 55.8246ZM178.041 56.025V58.9532H180.167V60.9573H178.041V67.6821C178.041 68.1423 178.13 68.4763 178.308 68.6842C178.494 68.8846 178.82 68.9848 179.288 68.9848C179.599 68.9848 179.915 68.9477 180.234 68.8734V70.9666C179.618 71.1373 179.024 71.2227 178.453 71.2227C176.374 71.2227 175.335 70.0759 175.335 67.7823V60.9573H173.353V58.9532H175.335V56.025H178.041ZM192.871 69.0627C193.546 69.0627 194.107 68.866 194.552 68.4726C194.998 68.0792 195.235 67.593 195.265 67.0141H197.814C197.785 67.7638 197.551 68.4652 197.113 69.1184C196.675 69.7641 196.081 70.2763 195.332 70.6549C194.582 71.0334 193.773 71.2227 192.904 71.2227C191.219 71.2227 189.883 70.6771 188.896 69.586C187.909 68.4949 187.415 66.9881 187.415 65.0657V64.7873C187.415 62.9539 187.905 61.488 188.885 60.3895C189.865 59.2835 191.201 58.7305 192.893 58.7305C194.326 58.7305 195.491 59.1499 196.389 59.9886C197.295 60.82 197.77 61.9148 197.814 63.2731H195.265C195.235 62.5828 194.998 62.015 194.552 61.5696C194.114 61.1243 193.554 60.9016 192.871 60.9016C191.995 60.9016 191.32 61.2208 190.845 61.8591C190.37 62.49 190.128 63.4513 190.121 64.7428V65.177C190.121 66.4834 190.355 67.4594 190.822 68.1052C191.297 68.7435 191.98 69.0627 192.871 69.0627ZM207.056 71C206.937 70.7699 206.833 70.3951 206.744 69.8755C205.883 70.7736 204.829 71.2227 203.582 71.2227C202.372 71.2227 201.385 70.8775 200.62 70.1872C199.856 69.4969 199.473 68.6433 199.473 67.6264C199.473 66.3423 199.948 65.3589 200.899 64.676C201.856 63.9857 203.222 63.6405 204.996 63.6405H206.655V62.85C206.655 62.2265 206.48 61.7292 206.131 61.3581C205.783 60.9795 205.252 60.7903 204.539 60.7903C203.923 60.7903 203.418 60.9461 203.025 61.2579C202.632 61.5622 202.435 61.9519 202.435 62.4269H199.729C199.729 61.7663 199.948 61.1503 200.386 60.5787C200.824 59.9998 201.418 59.547 202.168 59.2204C202.925 58.8938 203.767 58.7305 204.695 58.7305C206.105 58.7305 207.23 59.0868 208.069 59.7994C208.907 60.5045 209.338 61.4991 209.36 62.7832V68.2165C209.36 69.3002 209.512 70.165 209.817 70.8107V71H207.056ZM204.083 69.0516C204.617 69.0516 205.118 68.9217 205.586 68.6619C206.061 68.4021 206.417 68.0532 206.655 67.6153V65.344H205.196C204.194 65.344 203.441 65.5184 202.936 65.8673C202.431 66.2162 202.179 66.7098 202.179 67.3481C202.179 67.8677 202.35 68.2833 202.691 68.5951C203.04 68.8994 203.504 69.0516 204.083 69.0516ZM218.501 61.4249C218.145 61.3655 217.777 61.3358 217.399 61.3358C216.159 61.3358 215.324 61.8109 214.894 62.761V71H212.188V58.9532H214.771L214.838 60.3004C215.491 59.2538 216.397 58.7305 217.555 58.7305C217.941 58.7305 218.26 58.7825 218.512 58.8864L218.501 61.4249ZM219.481 64.8875C219.481 63.0319 219.911 61.5437 220.772 60.4229C221.633 59.2946 222.788 58.7305 224.235 58.7305C225.512 58.7305 226.543 59.1759 227.33 60.0666V53.8984H230.036V71H227.586L227.453 69.753C226.644 70.7328 225.564 71.2227 224.213 71.2227C222.802 71.2227 221.659 70.6549 220.784 69.5192C219.915 68.3835 219.481 66.8397 219.481 64.8875ZM222.186 65.1213C222.186 66.3461 222.42 67.3036 222.888 67.9939C223.363 68.6767 224.035 69.0182 224.903 69.0182C226.009 69.0182 226.818 68.5246 227.33 67.5374V62.3935C226.833 61.4286 226.031 60.9461 224.925 60.9461C224.049 60.9461 223.374 61.295 222.899 61.9927C222.424 62.683 222.186 63.7259 222.186 65.1213ZM239.611 67.7267C239.611 67.2442 239.41 66.8768 239.01 66.6244C238.616 66.372 237.959 66.1494 237.039 65.9564C236.119 65.7634 235.35 65.5184 234.734 65.2215C233.383 64.5684 232.708 63.622 232.708 62.3824C232.708 61.3433 233.146 60.4748 234.022 59.7771C234.898 59.0794 236.011 58.7305 237.362 58.7305C238.802 58.7305 239.963 59.0868 240.847 59.7994C241.737 60.5119 242.183 61.436 242.183 62.5717H239.477C239.477 62.0521 239.284 61.6216 238.898 61.2802C238.512 60.9313 238 60.7569 237.362 60.7569C236.768 60.7569 236.282 60.8942 235.903 61.1688C235.532 61.4435 235.347 61.8109 235.347 62.2711C235.347 62.6867 235.521 63.0096 235.87 63.2397C236.219 63.4698 236.924 63.7036 237.985 63.9411C239.047 64.1712 239.878 64.4496 240.479 64.7762C241.088 65.0954 241.537 65.4813 241.827 65.9341C242.123 66.3869 242.272 66.9361 242.272 67.5819C242.272 68.6656 241.823 69.5452 240.925 70.2206C240.027 70.8887 238.85 71.2227 237.395 71.2227C236.408 71.2227 235.528 71.0445 234.757 70.6883C233.985 70.332 233.383 69.8421 232.953 69.2186C232.522 68.5951 232.307 67.9233 232.307 67.2034H234.935C234.972 67.8417 235.213 68.3353 235.658 68.6842C236.104 69.0256 236.694 69.1963 237.429 69.1963C238.141 69.1963 238.683 69.0627 239.054 68.7955C239.425 68.5209 239.611 68.1646 239.611 67.7267Z" fill="white"/>
</svg>
