<svg width="82" height="17" viewBox="0 0 82 17" fill="none" xmlns="http://www.w3.org/2000/svg">
<path d="M3.75697 0.35498L9.12656 8.55291V0.35498H13.3678V15.8222H9.61085L4.24125 7.60181V15.8222H0V0.35498H3.75697Z" fill="white"/>
<path d="M33.0796 8.08809C33.0796 12.5515 29.2353 16.1537 24.7719 16.1537C20.3085 16.1537 16.4417 12.549 16.4417 8.08809C16.4417 3.62716 20.3085 0 24.7719 0C29.2353 0 33.0796 3.62466 33.0796 8.08809ZM29.0156 8.08809C29.0156 5.74654 27.1159 3.84684 24.7744 3.84684C22.4328 3.84684 20.5306 5.74404 20.5306 8.08809C20.5306 10.4296 22.4303 12.3094 24.7719 12.3094C27.1134 12.3094 29.0156 10.4296 29.0156 8.08809Z" fill="white"/>
<path d="M48.5481 3.93221H44.0172V15.8197H39.796V3.93221H35.2651V0.35498H48.5456V3.93221H48.5481Z" fill="white"/>
<path d="M59.7974 13.0812H54.8921L53.941 15.8222H49.2355L55.0694 0.35498H59.6002L65.4566 15.8222H60.751L59.7974 13.0812ZM58.5368 9.50151L57.3435 6.09902L56.1503 9.50151H58.5368Z" fill="white"/>
<path d="M81.0106 11.2265C81.0106 13.9225 79.2207 15.8222 75.1342 15.8222H68.5714V0.35498H74.8896C78.2272 0.35498 80.0146 2.05747 80.0146 4.6187C80.0146 5.5024 79.6601 6.78301 78.5792 7.57934C80.369 8.2858 81.0106 9.81106 81.0106 11.2265ZM72.7902 3.93221V6.05409H74.9121C75.8632 6.05409 76.305 5.58977 76.305 4.99315C76.305 4.39653 75.8632 3.93221 74.9121 3.93221H72.7902ZM77.2112 10.9369C77.2112 10.208 76.6146 9.63382 75.5312 9.63382H72.7902V12.24H75.5312C76.6146 12.2425 77.2112 11.6459 77.2112 10.9369Z" fill="white"/>
</svg>
